<?xml version="1.0" encoding="UTF-8" standalone="no"?>
<svg
   version="1.1"
   id="Layer_1"
   x="0px"
   y="0px"
   viewBox="0 0 55.2 55.199999"
   xml:space="preserve"
   sodipodi:docname="pt-BR.svg"
   width="55.200001"
   height="55.200001"
   inkscape:version="1.1.2 (0a00cf5339, 2022-02-04)"
   xmlns:inkscape="http://www.inkscape.org/namespaces/inkscape"
   xmlns:sodipodi="http://sodipodi.sourceforge.net/DTD/sodipodi-0.dtd"
   xmlns="http://www.w3.org/2000/svg"
   xmlns:svg="http://www.w3.org/2000/svg"><defs
     id="defs597" /><sodipodi:namedview
     id="namedview595"
     pagecolor="#ffffff"
     bordercolor="#666666"
     borderopacity="1.0"
     inkscape:pageshadow="2"
     inkscape:pageopacity="0"
     inkscape:pagecheckerboard="0"
     showgrid="false"
     height="55.2px"
     inkscape:zoom="18.723958"
     inkscape:cx="9.2127959"
     inkscape:cy="29.400836"
     inkscape:window-width="3840"
     inkscape:window-height="1466"
     inkscape:window-x="0"
     inkscape:window-y="27"
     inkscape:window-maximized="1"
     inkscape:current-layer="Layer_1" /><style
     type="text/css"
     id="style2">.st0{fill:#009B3A;} .st1{fill:#FEDF00;} .st2{fill:#002776;} .st3{fill:#FFFFFF;} .st4{fill-rule:evenodd;clip-rule:evenodd;fill:#009B3A;}</style><rect
     id="rect3016"
     width="55.316296"
     height="55.197353"
     x="-0.04504953"
     y="0.022213362"
     style="fill:#009b3a;fill-opacity:1" /><g
     id="g1186"
     transform="translate(0.26750045,8.2114898)"><polygon
       class="st1"
       points="27.6,34.11 50.96,19.2 27.6,4.29 4.24,19.2 "
       id="polygon6" /><path
       class="st2"
       d="m 27.6,9.35 c 5.44,0 9.85,4.41 9.85,9.85 0,5.44 -4.41,9.85 -9.85,9.85 -5.44,0 -9.85,-4.41 -9.85,-9.85 0,-5.44 4.41,-9.85 9.85,-9.85 z"
       id="path8" /><path
       class="st3"
       d="m 18.59,15.22 c 1.1,-0.16 2.23,-0.24 3.38,-0.24 5.86,0 11.22,2.11 15.38,5.6 -0.07,0.54 -0.19,1.06 -0.35,1.56 -3.98,-3.58 -9.25,-5.76 -15.03,-5.76 -1.33,0 -2.64,0.12 -3.91,0.34 0.14,-0.52 0.32,-1.02 0.53,-1.5 z"
       id="path10" /><path
       class="st4"
       d="m 19.18,16.15 c 0.14,-0.02 0.23,-0.16 0.21,-0.32 -0.02,-0.16 -0.15,-0.28 -0.28,-0.26 -0.13,0.02 -0.23,0.16 -0.21,0.32 0.02,0.16 0.14,0.27 0.28,0.26 z m 0.02,0.17 c 0.23,-0.03 0.4,-0.26 0.36,-0.52 -0.03,-0.26 -0.24,-0.44 -0.48,-0.41 -0.23,0.03 -0.39,0.26 -0.36,0.52 0.04,0.25 0.25,0.44 0.48,0.41 z"
       id="path12" /><path
       class="st4"
       d="m 20.1,15.7 0.36,-0.02 c 0.07,-0.01 0.12,-0.06 0.11,-0.13 0,-0.07 -0.06,-0.12 -0.13,-0.11 l -0.36,0.03 z m -0.14,0.54 0.17,-0.01 -0.02,-0.35 0.37,-0.03 c 0.16,-0.01 0.29,-0.15 0.27,-0.31 -0.01,-0.16 -0.15,-0.28 -0.31,-0.27 l -0.53,0.04 z"
       id="path14" /><path
       class="st0"
       d="m 20.76,16.18 c -0.01,-0.13 -0.03,-0.43 -0.23,-0.41 l -0.26,0.02 c 0.29,-0.02 0.31,0.27 0.33,0.41 z"
       id="path16" /><path
       class="st4"
       d="m 21.32,15.98 h 0.25 c 0.14,0 0.25,-0.12 0.25,-0.26 v -0.08 c 0,-0.14 -0.12,-0.25 -0.26,-0.25 L 21.3,15.4 Z m -0.17,0.18 0.44,-0.01 c 0.22,-0.01 0.4,-0.19 0.4,-0.41 v -0.13 c 0,-0.22 -0.19,-0.4 -0.41,-0.4 l -0.44,0.01 z"
       id="path18" /><polygon
       class="st0"
       points="23.05,15.76 23.06,15.6 22.52,15.58 22.53,15.39 23.17,15.42 23.18,15.24 22.38,15.21 22.34,16.15 23.19,16.18 23.19,16.01 22.51,15.98 22.52,15.74 "
       id="polygon20" /><polygon
       class="st0"
       points="24.27,15.62 24.21,16.26 24.37,16.27 24.46,15.34 24.22,15.32 23.98,15.94 23.85,15.29 23.62,15.27 23.53,16.2 23.69,16.22 23.75,15.57 23.88,16.23 24.03,16.25 "
       id="polygon22" /><polygon
       class="st0"
       points="26.13,16.15 26.16,16 25.73,15.92 25.75,15.77 26.27,15.86 26.3,15.7 25.62,15.59 25.48,16.42 26.17,16.54 26.2,16.38 25.66,16.29 25.7,16.08 "
       id="polygon24" /><path
       class="st4"
       d="m 27.56,16.31 0.35,0.09 c 0.06,0.01 0.13,-0.02 0.15,-0.09 0.01,-0.06 -0.02,-0.13 -0.09,-0.15 l -0.35,-0.09 z m -0.3,0.46 0.17,0.04 0.09,-0.34 0.36,0.09 c 0.16,0.04 0.32,-0.05 0.36,-0.21 0.04,-0.16 -0.05,-0.32 -0.21,-0.36 l -0.52,-0.14 z"
       id="path26" /><path
       class="st4"
       d="m 28.73,16.63 0.34,0.11 c 0.06,0.02 0.13,-0.01 0.15,-0.08 0.02,-0.06 -0.01,-0.13 -0.08,-0.15 L 28.8,16.4 Z m -0.32,0.45 0.17,0.05 0.11,-0.33 0.36,0.11 c 0.15,0.05 0.32,-0.04 0.37,-0.19 0.05,-0.15 -0.04,-0.32 -0.19,-0.37 l -0.51,-0.16 z"
       id="path28" /><path
       class="st0"
       d="m 29.17,17.32 c 0.04,-0.13 0.13,-0.41 -0.06,-0.47 l -0.24,-0.08 c 0.28,0.09 0.19,0.37 0.15,0.5 z"
       id="path30" /><path
       class="st4"
       d="m 30,17.43 c 0.13,0.05 0.28,-0.04 0.33,-0.19 0.06,-0.15 0,-0.32 -0.13,-0.36 -0.13,-0.05 -0.28,0.04 -0.33,0.19 -0.06,0.15 0,0.31 0.13,0.36 z m -0.06,0.16 c 0.22,0.08 0.47,-0.05 0.56,-0.29 0.09,-0.24 -0.01,-0.51 -0.23,-0.59 -0.22,-0.08 -0.47,0.05 -0.56,0.29 -0.09,0.25 0.01,0.51 0.23,0.59 z"
       id="path32" /><path
       class="st4"
       d="m 31.11,17.88 c 0.13,0.05 0.28,-0.02 0.35,-0.17 v 0 l 0.16,0.07 c -0.1,0.24 -0.36,0.35 -0.57,0.26 -0.22,-0.09 -0.31,-0.36 -0.2,-0.6 0.1,-0.24 0.36,-0.36 0.57,-0.26 0.17,0.07 0.26,0.25 0.24,0.44 l -0.17,-0.08 c -0.01,-0.09 -0.06,-0.17 -0.14,-0.2 -0.12,-0.06 -0.28,0.02 -0.34,0.17 -0.07,0.15 -0.03,0.31 0.1,0.37 z"
       id="path34" /><polygon
       class="st0"
       points="31.62,17.78 31.56,17.9 31.24,17.76 31.29,17.64 "
       id="polygon36" /><polygon
       class="st0"
       points="31.62,17.78 31.43,18.21 31.3,18.15 31.49,17.72 "
       id="polygon38" /><path
       class="st4"
       d="m 32.13,17.96 0.32,0.16 c 0.06,0.03 0.13,0.01 0.16,-0.05 0.03,-0.06 0.01,-0.13 -0.06,-0.16 l -0.32,-0.16 z m -0.39,0.39 0.16,0.08 0.15,-0.31 0.33,0.17 c 0.15,0.07 0.32,0.01 0.4,-0.13 0.07,-0.15 0.01,-0.32 -0.13,-0.4 l -0.48,-0.24 z"
       id="path40" /><path
       class="st0"
       d="m 32.46,18.71 c 0.06,-0.12 0.19,-0.38 0.01,-0.47 l -0.23,-0.11 c 0.26,0.13 0.13,0.4 0.07,0.51 z"
       id="path42" /><polygon
       class="st0"
       points="33.62,18.87 33.69,18.73 33.23,18.47 33.32,18.31 33.88,18.62 33.97,18.47 33.27,18.08 32.81,18.89 33.54,19.31 33.63,19.16 33.03,18.82 33.15,18.61 "
       id="polygon44" /><path
       class="st0"
       d="m 34.18,19.35 c -0.05,0.08 0,0.17 0.11,0.24 0.11,0.07 0.19,0.07 0.22,0.02 0.1,-0.16 -0.49,-0.4 -0.31,-0.68 0.16,-0.24 0.43,-0.05 0.53,0.01 0.1,0.06 0.26,0.23 0.14,0.42 L 34.7,19.25 c 0.05,-0.09 -0.01,-0.17 -0.1,-0.22 -0.09,-0.05 -0.16,-0.08 -0.21,0 -0.09,0.13 0.49,0.38 0.32,0.66 -0.13,0.21 -0.36,0.12 -0.52,0.02 -0.13,-0.08 -0.32,-0.28 -0.2,-0.48 z"
       id="path46" /><path
       class="st0"
       d="m 35.18,20.02 c -0.05,0.08 -0.01,0.17 0.1,0.24 0.11,0.08 0.19,0.08 0.22,0.03 0.11,-0.16 -0.47,-0.42 -0.27,-0.69 0.17,-0.23 0.43,-0.03 0.53,0.04 0.1,0.07 0.25,0.25 0.12,0.43 l -0.17,-0.12 c 0.06,-0.08 0,-0.16 -0.08,-0.23 -0.08,-0.06 -0.15,-0.09 -0.21,-0.01 -0.1,0.12 0.47,0.4 0.28,0.67 -0.14,0.2 -0.37,0.1 -0.51,-0.01 -0.13,-0.09 -0.31,-0.3 -0.17,-0.49 z"
       id="path48" /><path
       class="st4"
       d="m 36.24,20.96 c 0.11,0.08 0.28,0.05 0.38,-0.08 0.1,-0.13 0.1,-0.3 -0.01,-0.38 -0.1,-0.09 -0.28,-0.05 -0.37,0.08 -0.11,0.12 -0.11,0.3 0,0.38 z m -0.11,0.14 c 0.18,0.15 0.46,0.1 0.62,-0.1 0.16,-0.2 0.14,-0.48 -0.04,-0.63 -0.18,-0.15 -0.46,-0.1 -0.62,0.1 -0.16,0.2 -0.14,0.48 0.04,0.63 z"
       id="path50" /><polygon
       class="st3"
       points="19.63,17.48 19.56,17.01 19.43,17.41 "
       id="polygon52" /><polygon
       class="st3"
       points="19.49,17.48 19.56,17.01 19.69,17.41 "
       id="polygon54" /><polygon
       class="st3"
       points="19.54,17.51 19.96,17.3 19.54,17.3 "
       id="polygon56" /><polygon
       class="st3"
       points="19.49,17.38 19.96,17.3 19.62,17.55 "
       id="polygon58" /><polygon
       class="st3"
       points="19.62,17.38 19.16,17.3 19.5,17.55 "
       id="polygon60" /><polygon
       class="st3"
       points="19.58,17.51 19.16,17.3 19.58,17.3 "
       id="polygon62" /><polygon
       class="st3"
       points="19.48,17.44 19.81,17.77 19.68,17.37 "
       id="polygon64" /><polygon
       class="st3"
       points="19.59,17.35 19.81,17.77 19.47,17.53 "
       id="polygon66" /><polygon
       class="st3"
       points="19.53,17.35 19.31,17.77 19.65,17.53 "
       id="polygon68" /><polygon
       class="st3"
       points="19.64,17.44 19.31,17.77 19.44,17.37 "
       id="polygon70" /><polygon
       class="st3"
       points="20.5,21.62 20.43,21.15 20.3,21.55 "
       id="polygon72" /><polygon
       class="st3"
       points="20.36,21.62 20.43,21.15 20.56,21.55 "
       id="polygon74" /><polygon
       class="st3"
       points="20.41,21.65 20.83,21.44 20.41,21.44 "
       id="polygon76" /><polygon
       class="st3"
       points="20.37,21.52 20.83,21.44 20.49,21.69 "
       id="polygon78" /><polygon
       class="st3"
       points="20.5,21.52 20.03,21.44 20.37,21.69 "
       id="polygon80" /><polygon
       class="st3"
       points="20.45,21.65 20.03,21.44 20.45,21.44 "
       id="polygon82" /><polygon
       class="st3"
       points="20.35,21.58 20.68,21.91 20.55,21.51 "
       id="polygon84" /><polygon
       class="st3"
       points="20.46,21.49 20.68,21.91 20.34,21.67 "
       id="polygon86" /><polygon
       class="st3"
       points="20.4,21.49 20.18,21.91 20.52,21.67 "
       id="polygon88" /><polygon
       class="st3"
       points="20.51,21.58 20.18,21.91 20.31,21.51 "
       id="polygon90" /><polygon
       class="st3"
       points="19.28,22.49 19.22,22.11 19.12,22.44 "
       id="polygon92" /><polygon
       class="st3"
       points="19.17,22.49 19.22,22.11 19.33,22.44 "
       id="polygon94" /><polygon
       class="st3"
       points="19.21,22.52 19.56,22.35 19.21,22.35 "
       id="polygon96" /><polygon
       class="st3"
       points="19.17,22.41 19.56,22.35 19.27,22.55 "
       id="polygon98" /><polygon
       class="st3"
       points="19.28,22.41 18.89,22.35 19.18,22.55 "
       id="polygon100" /><polygon
       class="st3"
       points="19.24,22.52 18.89,22.35 19.24,22.35 "
       id="polygon102" /><polygon
       class="st3"
       points="19.15,22.46 19.43,22.74 19.32,22.4 "
       id="polygon104" /><polygon
       class="st3"
       points="19.25,22.39 19.43,22.74 19.15,22.53 "
       id="polygon106" /><polygon
       class="st3"
       points="19.2,22.39 19.02,22.74 19.3,22.53 "
       id="polygon108" /><polygon
       class="st3"
       points="19.29,22.46 19.02,22.74 19.13,22.4 "
       id="polygon110" /><polygon
       class="st3"
       points="21.43,20.99 21.4,20.77 21.33,20.96 "
       id="polygon112" /><polygon
       class="st3"
       points="21.36,20.99 21.4,20.77 21.46,20.96 "
       id="polygon114" /><polygon
       class="st3"
       points="21.39,21.01 21.59,20.91 21.39,20.91 "
       id="polygon116" /><polygon
       class="st3"
       points="21.37,20.95 21.59,20.91 21.42,21.03 "
       id="polygon118" /><polygon
       class="st3"
       points="21.43,20.95 21.2,20.91 21.37,21.03 "
       id="polygon120" /><polygon
       class="st3"
       points="21.41,21.01 21.2,20.91 21.41,20.91 "
       id="polygon122" /><polygon
       class="st3"
       points="21.36,20.97 21.51,21.13 21.45,20.94 "
       id="polygon124" /><polygon
       class="st3"
       points="21.41,20.93 21.51,21.13 21.35,21.01 "
       id="polygon126" /><polygon
       class="st3"
       points="21.38,20.93 21.28,21.13 21.44,21.01 "
       id="polygon128" /><polygon
       class="st3"
       points="21.43,20.97 21.28,21.13 21.34,20.94 "
       id="polygon130" /><polygon
       class="st3"
       points="22.54,22.59 22.48,22.2 22.37,22.53 "
       id="polygon132" /><polygon
       class="st3"
       points="22.42,22.59 22.48,22.2 22.59,22.53 "
       id="polygon134" /><polygon
       class="st3"
       points="22.46,22.62 22.82,22.44 22.46,22.44 "
       id="polygon136" /><polygon
       class="st3"
       points="22.43,22.51 22.82,22.44 22.53,22.65 "
       id="polygon138" /><polygon
       class="st3"
       points="22.53,22.51 22.15,22.44 22.43,22.65 "
       id="polygon140" /><polygon
       class="st3"
       points="22.5,22.62 22.15,22.44 22.5,22.44 "
       id="polygon142" /><polygon
       class="st3"
       points="22.41,22.55 22.69,22.84 22.58,22.5 "
       id="polygon144" /><polygon
       class="st3"
       points="22.51,22.49 22.69,22.84 22.4,22.63 "
       id="polygon146" /><polygon
       class="st3"
       points="22.46,22.49 22.28,22.84 22.56,22.63 "
       id="polygon148" /><polygon
       class="st3"
       points="22.55,22.55 22.28,22.84 22.38,22.5 "
       id="polygon150" /><polygon
       class="st3"
       points="22.23,23.56 22.19,23.25 22.1,23.52 "
       id="polygon152" /><polygon
       class="st3"
       points="22.14,23.56 22.19,23.25 22.27,23.52 "
       id="polygon154" /><polygon
       class="st3"
       points="22.17,23.58 22.45,23.44 22.17,23.44 "
       id="polygon156" /><polygon
       class="st3"
       points="22.14,23.49 22.45,23.44 22.23,23.61 "
       id="polygon158" /><polygon
       class="st3"
       points="22.23,23.49 21.92,23.44 22.15,23.61 "
       id="polygon160" /><polygon
       class="st3"
       points="22.2,23.58 21.92,23.44 22.2,23.44 "
       id="polygon162" /><polygon
       class="st3"
       points="22.13,23.53 22.35,23.76 22.26,23.49 "
       id="polygon164" /><polygon
       class="st3"
       points="22.21,23.48 22.35,23.76 22.12,23.59 "
       id="polygon166" /><polygon
       class="st3"
       points="22.16,23.48 22.02,23.76 22.25,23.59 "
       id="polygon168" /><polygon
       class="st3"
       points="22.24,23.53 22.02,23.76 22.11,23.49 "
       id="polygon170" /><polygon
       class="st3"
       points="30.73,16.19 30.66,15.72 30.53,16.12 "
       id="polygon172" /><polygon
       class="st3"
       points="30.58,16.19 30.66,15.72 30.78,16.12 "
       id="polygon174" /><polygon
       class="st3"
       points="30.63,16.23 31.06,16.02 30.63,16.02 "
       id="polygon176" /><polygon
       class="st3"
       points="30.59,16.09 31.06,16.02 30.71,16.26 "
       id="polygon178" /><polygon
       class="st3"
       points="30.72,16.09 30.25,16.02 30.6,16.26 "
       id="polygon180" /><polygon
       class="st3"
       points="30.68,16.23 30.25,16.02 30.68,16.02 "
       id="polygon182" /><polygon
       class="st3"
       points="30.57,16.15 30.9,16.49 30.77,16.09 "
       id="polygon184" /><polygon
       class="st3"
       points="30.69,16.07 30.9,16.49 30.56,16.24 "
       id="polygon186" /><polygon
       class="st3"
       points="30.62,16.07 30.41,16.49 30.75,16.24 "
       id="polygon188" /><polygon
       class="st3"
       points="30.74,16.15 30.41,16.49 30.54,16.09 "
       id="polygon190" /><polygon
       class="st3"
       points="34.57,22.7 34.5,22.24 34.37,22.64 "
       id="polygon192" /><polygon
       class="st3"
       points="34.43,22.7 34.5,22.24 34.63,22.64 "
       id="polygon194" /><polygon
       class="st3"
       points="34.48,22.74 34.9,22.53 34.48,22.53 "
       id="polygon196" /><polygon
       class="st3"
       points="34.44,22.61 34.9,22.53 34.56,22.77 "
       id="polygon198" /><polygon
       class="st3"
       points="34.56,22.61 34.1,22.53 34.44,22.77 "
       id="polygon200" /><polygon
       class="st3"
       points="34.52,22.74 34.1,22.53 34.52,22.53 "
       id="polygon202" /><polygon
       class="st3"
       points="34.42,22.66 34.75,23 34.62,22.6 "
       id="polygon204" /><polygon
       class="st3"
       points="34.53,22.58 34.75,23 34.41,22.75 "
       id="polygon206" /><polygon
       class="st3"
       points="34.47,22.58 34.25,23 34.59,22.75 "
       id="polygon208" /><polygon
       class="st3"
       points="34.58,22.66 34.25,23 34.38,22.6 "
       id="polygon210" /><polygon
       class="st3"
       points="35.91,22.78 35.87,22.47 35.78,22.74 "
       id="polygon212" /><polygon
       class="st3"
       points="35.82,22.78 35.87,22.47 35.95,22.74 "
       id="polygon214" /><polygon
       class="st3"
       points="35.85,22.8 36.13,22.66 35.85,22.66 "
       id="polygon216" /><polygon
       class="st3"
       points="35.82,22.72 36.13,22.66 35.91,22.83 "
       id="polygon218" /><polygon
       class="st3"
       points="35.91,22.72 35.6,22.66 35.83,22.83 "
       id="polygon220" /><polygon
       class="st3"
       points="35.88,22.8 35.6,22.66 35.88,22.66 "
       id="polygon222" /><polygon
       class="st3"
       points="35.81,22.75 36.03,22.98 35.95,22.71 "
       id="polygon224" /><polygon
       class="st3"
       points="35.89,22.7 36.03,22.98 35.81,22.81 "
       id="polygon226" /><polygon
       class="st3"
       points="35.85,22.7 35.7,22.98 35.93,22.81 "
       id="polygon228" /><polygon
       class="st3"
       points="35.92,22.75 35.7,22.98 35.79,22.71 "
       id="polygon230" /><polygon
       class="st3"
       points="34.96,23.57 34.9,23.18 34.79,23.51 "
       id="polygon232" /><polygon
       class="st3"
       points="34.84,23.57 34.9,23.18 35.01,23.51 "
       id="polygon234" /><polygon
       class="st3"
       points="34.88,23.59 35.24,23.42 34.88,23.42 "
       id="polygon236" /><polygon
       class="st3"
       points="34.85,23.48 35.24,23.42 34.95,23.63 "
       id="polygon238" /><polygon
       class="st3"
       points="34.96,23.48 34.57,23.42 34.85,23.63 "
       id="polygon240" /><polygon
       class="st3"
       points="34.92,23.59 34.57,23.42 34.92,23.42 "
       id="polygon242" /><polygon
       class="st3"
       points="34.83,23.53 35.11,23.81 35,23.48 "
       id="polygon244" /><polygon
       class="st3"
       points="34.93,23.46 35.11,23.81 34.83,23.61 "
       id="polygon246" /><polygon
       class="st3"
       points="34.88,23.46 34.7,23.81 34.98,23.61 "
       id="polygon248" /><polygon
       class="st3"
       points="34.97,23.53 34.7,23.81 34.81,23.48 "
       id="polygon250" /><polygon
       class="st3"
       points="32.59,25.63 32.53,25.24 32.42,25.57 "
       id="polygon252" /><polygon
       class="st3"
       points="32.47,25.63 32.53,25.24 32.64,25.57 "
       id="polygon254" /><polygon
       class="st3"
       points="32.51,25.66 32.87,25.48 32.51,25.48 "
       id="polygon256" /><polygon
       class="st3"
       points="32.48,25.55 32.87,25.48 32.58,25.69 "
       id="polygon258" /><polygon
       class="st3"
       points="32.58,25.55 32.2,25.48 32.48,25.69 "
       id="polygon260" /><polygon
       class="st3"
       points="32.55,25.66 32.2,25.48 32.55,25.48 "
       id="polygon262" /><polygon
       class="st3"
       points="32.46,25.6 32.74,25.88 32.63,25.54 "
       id="polygon264" /><polygon
       class="st3"
       points="32.56,25.53 32.74,25.88 32.45,25.67 "
       id="polygon266" /><polygon
       class="st3"
       points="32.51,25.53 32.33,25.88 32.61,25.67 "
       id="polygon268" /><polygon
       class="st3"
       points="32.6,25.6 32.33,25.88 32.43,25.54 "
       id="polygon270" /><polygon
       class="st3"
       points="32.56,26.61 32.52,26.3 32.43,26.57 "
       id="polygon272" /><polygon
       class="st3"
       points="32.47,26.61 32.52,26.3 32.6,26.57 "
       id="polygon274" /><polygon
       class="st3"
       points="32.5,26.64 32.78,26.5 32.5,26.5 "
       id="polygon276" /><polygon
       class="st3"
       points="32.47,26.55 32.78,26.5 32.56,26.66 "
       id="polygon278" /><polygon
       class="st3"
       points="32.56,26.55 32.25,26.5 32.48,26.66 "
       id="polygon280" /><polygon
       class="st3"
       points="32.53,26.64 32.25,26.5 32.53,26.5 "
       id="polygon282" /><polygon
       class="st3"
       points="32.46,26.59 32.68,26.81 32.6,26.54 "
       id="polygon284" /><polygon
       class="st3"
       points="32.54,26.53 32.68,26.81 32.46,26.65 "
       id="polygon286" /><polygon
       class="st3"
       points="32.5,26.53 32.35,26.81 32.58,26.65 "
       id="polygon288" /><polygon
       class="st3"
       points="32.57,26.59 32.35,26.81 32.44,26.54 "
       id="polygon290" /><polygon
       class="st3"
       points="33.56,24.85 33.51,24.53 33.42,24.8 "
       id="polygon292" /><polygon
       class="st3"
       points="33.46,24.85 33.51,24.53 33.6,24.8 "
       id="polygon294" /><polygon
       class="st3"
       points="33.49,24.87 33.78,24.73 33.49,24.73 "
       id="polygon296" /><polygon
       class="st3"
       points="33.47,24.78 33.78,24.73 33.55,24.89 "
       id="polygon298" /><polygon
       class="st3"
       points="33.55,24.78 33.24,24.73 33.47,24.89 "
       id="polygon300" /><polygon
       class="st3"
       points="33.52,24.87 33.24,24.73 33.52,24.73 "
       id="polygon302" /><polygon
       class="st3"
       points="33.45,24.82 33.67,25.04 33.59,24.77 "
       id="polygon304" /><polygon
       class="st3"
       points="33.53,24.76 33.67,25.04 33.45,24.88 "
       id="polygon306" /><polygon
       class="st3"
       points="33.49,24.76 33.34,25.04 33.57,24.88 "
       id="polygon308" /><polygon
       class="st3"
       points="33.56,24.82 33.34,25.04 33.43,24.77 "
       id="polygon310" /><polygon
       class="st3"
       points="34.36,24.36 34.3,23.97 34.19,24.3 "
       id="polygon312" /><polygon
       class="st3"
       points="34.24,24.36 34.3,23.97 34.41,24.3 "
       id="polygon314" /><polygon
       class="st3"
       points="34.28,24.39 34.63,24.21 34.28,24.21 "
       id="polygon316" /><polygon
       class="st3"
       points="34.25,24.28 34.63,24.21 34.35,24.42 "
       id="polygon318" /><polygon
       class="st3"
       points="34.35,24.28 33.97,24.21 34.25,24.42 "
       id="polygon320" /><polygon
       class="st3"
       points="34.32,24.39 33.97,24.21 34.32,24.21 "
       id="polygon322" /><polygon
       class="st3"
       points="34.23,24.32 34.51,24.6 34.4,24.27 "
       id="polygon324" /><polygon
       class="st3"
       points="34.33,24.25 34.51,24.6 34.22,24.4 "
       id="polygon326" /><polygon
       class="st3"
       points="34.27,24.25 34.09,24.6 34.38,24.4 "
       id="polygon328" /><polygon
       class="st3"
       points="34.37,24.32 34.09,24.6 34.2,24.27 "
       id="polygon330" /><polygon
       class="st3"
       points="32.54,24.66 32.49,24.34 32.4,24.61 "
       id="polygon332" /><polygon
       class="st3"
       points="32.44,24.66 32.49,24.34 32.58,24.61 "
       id="polygon334" /><polygon
       class="st3"
       points="32.48,24.68 32.76,24.54 32.48,24.54 "
       id="polygon336" /><polygon
       class="st3"
       points="32.45,24.59 32.76,24.54 32.53,24.71 "
       id="polygon338" /><polygon
       class="st3"
       points="32.53,24.59 32.22,24.54 32.45,24.71 "
       id="polygon340" /><polygon
       class="st3"
       points="32.51,24.68 32.22,24.54 32.51,24.54 "
       id="polygon342" /><polygon
       class="st3"
       points="32.44,24.63 32.66,24.85 32.57,24.59 "
       id="polygon344" /><polygon
       class="st3"
       points="32.51,24.58 32.66,24.85 32.43,24.69 "
       id="polygon346" /><polygon
       class="st3"
       points="32.47,24.58 32.33,24.85 32.55,24.69 "
       id="polygon348" /><polygon
       class="st3"
       points="32.55,24.63 32.33,24.85 32.41,24.59 "
       id="polygon350" /><polygon
       class="st3"
       points="23.91,19.64 23.85,19.25 23.74,19.58 "
       id="polygon352" /><polygon
       class="st3"
       points="23.79,19.64 23.85,19.25 23.96,19.58 "
       id="polygon354" /><polygon
       class="st3"
       points="23.83,19.67 24.18,19.49 23.83,19.49 "
       id="polygon356" /><polygon
       class="st3"
       points="23.79,19.56 24.18,19.49 23.9,19.7 "
       id="polygon358" /><polygon
       class="st3"
       points="23.9,19.56 23.51,19.49 23.8,19.7 "
       id="polygon360" /><polygon
       class="st3"
       points="23.87,19.67 23.51,19.49 23.87,19.49 "
       id="polygon362" /><polygon
       class="st3"
       points="23.78,19.61 24.05,19.89 23.95,19.55 "
       id="polygon364" /><polygon
       class="st3"
       points="23.87,19.54 24.05,19.89 23.77,19.68 "
       id="polygon366" /><polygon
       class="st3"
       points="23.82,19.54 23.64,19.89 23.93,19.68 "
       id="polygon368" /><polygon
       class="st3"
       points="23.92,19.61 23.64,19.89 23.75,19.55 "
       id="polygon370" /><polygon
       class="st3"
       points="30.33,18.73 30.28,18.42 30.19,18.69 "
       id="polygon372" /><polygon
       class="st3"
       points="30.23,18.73 30.28,18.42 30.37,18.69 "
       id="polygon374" /><polygon
       class="st3"
       points="30.27,18.76 30.55,18.62 30.27,18.62 "
       id="polygon376" /><polygon
       class="st3"
       points="30.24,18.67 30.55,18.62 30.32,18.78 "
       id="polygon378" /><polygon
       class="st3"
       points="30.32,18.67 30.01,18.62 30.24,18.78 "
       id="polygon380" /><polygon
       class="st3"
       points="30.29,18.76 30.01,18.62 30.29,18.62 "
       id="polygon382" /><polygon
       class="st3"
       points="30.23,18.71 30.44,18.93 30.36,18.67 "
       id="polygon384" /><polygon
       class="st3"
       points="30.3,18.65 30.44,18.93 30.22,18.77 "
       id="polygon386" /><polygon
       class="st3"
       points="30.26,18.65 30.12,18.93 30.34,18.77 "
       id="polygon388" /><polygon
       class="st3"
       points="30.34,18.71 30.12,18.93 30.2,18.67 "
       id="polygon390" /><polygon
       class="st3"
       points="27.67,23.67 27.6,23.2 27.47,23.6 "
       id="polygon392" /><polygon
       class="st3"
       points="27.53,23.67 27.6,23.2 27.73,23.6 "
       id="polygon394" /><polygon
       class="st3"
       points="27.58,23.7 28,23.49 27.58,23.49 "
       id="polygon396" /><polygon
       class="st3"
       points="27.54,23.57 28,23.49 27.66,23.74 "
       id="polygon398" /><polygon
       class="st3"
       points="27.66,23.57 27.2,23.49 27.54,23.74 "
       id="polygon400" /><polygon
       class="st3"
       points="27.62,23.7 27.2,23.49 27.62,23.49 "
       id="polygon402" /><polygon
       class="st3"
       points="27.52,23.63 27.85,23.96 27.72,23.56 "
       id="polygon404" /><polygon
       class="st3"
       points="27.63,23.54 27.85,23.96 27.51,23.72 "
       id="polygon406" /><polygon
       class="st3"
       points="27.57,23.54 27.35,23.96 27.69,23.72 "
       id="polygon408" /><polygon
       class="st3"
       points="27.68,23.63 27.35,23.96 27.48,23.56 "
       id="polygon410" /><polygon
       class="st3"
       points="28.8,21.7 28.74,21.31 28.63,21.65 "
       id="polygon412" /><polygon
       class="st3"
       points="28.68,21.7 28.74,21.31 28.85,21.65 "
       id="polygon414" /><polygon
       class="st3"
       points="28.72,21.73 29.07,21.56 28.72,21.56 "
       id="polygon416" /><polygon
       class="st3"
       points="28.68,21.62 29.07,21.56 28.79,21.76 "
       id="polygon418" /><polygon
       class="st3"
       points="28.79,21.62 28.41,21.56 28.69,21.76 "
       id="polygon420" /><polygon
       class="st3"
       points="28.76,21.73 28.41,21.56 28.76,21.56 "
       id="polygon422" /><polygon
       class="st3"
       points="28.67,21.67 28.95,21.95 28.84,21.62 "
       id="polygon424" /><polygon
       class="st3"
       points="28.76,21.6 28.95,21.95 28.66,21.74 "
       id="polygon426" /><polygon
       class="st3"
       points="28.71,21.6 28.53,21.95 28.82,21.74 "
       id="polygon428" /><polygon
       class="st3"
       points="28.81,21.67 28.53,21.95 28.64,21.62 "
       id="polygon430" /><polygon
       class="st3"
       points="27.66,20.82 27.6,20.43 27.49,20.76 "
       id="polygon432" /><polygon
       class="st3"
       points="27.54,20.82 27.6,20.43 27.71,20.76 "
       id="polygon434" /><polygon
       class="st3"
       points="27.58,20.85 27.93,20.67 27.58,20.67 "
       id="polygon436" /><polygon
       class="st3"
       points="27.55,20.74 27.93,20.67 27.65,20.88 "
       id="polygon438" /><polygon
       class="st3"
       points="27.65,20.74 27.27,20.67 27.55,20.88 "
       id="polygon440" /><polygon
       class="st3"
       points="27.62,20.85 27.27,20.67 27.62,20.67 "
       id="polygon442" /><polygon
       class="st3"
       points="27.53,20.79 27.81,21.07 27.7,20.73 "
       id="polygon444" /><polygon
       class="st3"
       points="27.63,20.72 27.81,21.07 27.52,20.86 "
       id="polygon446" /><polygon
       class="st3"
       points="27.57,20.72 27.39,21.07 27.68,20.86 "
       id="polygon448" /><polygon
       class="st3"
       points="27.67,20.79 27.39,21.07 27.5,20.73 "
       id="polygon450" /><polygon
       class="st3"
       points="26.66,21.7 26.61,21.38 26.52,21.65 "
       id="polygon452" /><polygon
       class="st3"
       points="26.56,21.7 26.61,21.38 26.7,21.65 "
       id="polygon454" /><polygon
       class="st3"
       points="26.59,21.72 26.88,21.58 26.59,21.58 "
       id="polygon456" /><polygon
       class="st3"
       points="26.56,21.63 26.88,21.58 26.65,21.74 "
       id="polygon458" /><polygon
       class="st3"
       points="26.65,21.63 26.34,21.58 26.57,21.74 "
       id="polygon460" /><polygon
       class="st3"
       points="26.62,21.72 26.34,21.58 26.62,21.58 "
       id="polygon462" /><polygon
       class="st3"
       points="26.55,21.67 26.77,21.89 26.69,21.63 "
       id="polygon464" /><polygon
       class="st3"
       points="26.63,21.61 26.77,21.89 26.55,21.73 "
       id="polygon466" /><polygon
       class="st3"
       points="26.59,21.61 26.44,21.89 26.67,21.73 "
       id="polygon468" /><polygon
       class="st3"
       points="26.66,21.67 26.44,21.89 26.53,21.63 "
       id="polygon470" /><polygon
       class="st3"
       points="27.14,22.37 27.1,22.15 27.04,22.34 "
       id="polygon472" /><polygon
       class="st3"
       points="27.07,22.37 27.1,22.15 27.17,22.34 "
       id="polygon474" /><polygon
       class="st3"
       points="27.09,22.39 27.29,22.29 27.09,22.29 "
       id="polygon476" /><polygon
       class="st3"
       points="27.07,22.32 27.29,22.29 27.13,22.4 "
       id="polygon478" /><polygon
       class="st3"
       points="27.13,22.32 26.91,22.29 27.08,22.4 "
       id="polygon480" /><polygon
       class="st3"
       points="27.11,22.39 26.91,22.29 27.11,22.29 "
       id="polygon482" /><polygon
       class="st3"
       points="27.06,22.35 27.22,22.51 27.16,22.32 "
       id="polygon484" /><polygon
       class="st3"
       points="27.12,22.31 27.22,22.51 27.06,22.39 "
       id="polygon486" /><polygon
       class="st3"
       points="27.09,22.31 26.99,22.51 27.15,22.39 "
       id="polygon488" /><polygon
       class="st3"
       points="27.14,22.35 26.99,22.51 27.05,22.32 "
       id="polygon490" /><polygon
       class="st3"
       points="30.61,25.87 30.55,25.48 30.44,25.82 "
       id="polygon492" /><polygon
       class="st3"
       points="30.49,25.87 30.55,25.48 30.66,25.82 "
       id="polygon494" /><polygon
       class="st3"
       points="30.53,25.9 30.88,25.72 30.53,25.72 "
       id="polygon496" /><polygon
       class="st3"
       points="30.49,25.79 30.88,25.72 30.6,25.93 "
       id="polygon498" /><polygon
       class="st3"
       points="30.6,25.79 30.21,25.72 30.5,25.93 "
       id="polygon500" /><polygon
       class="st3"
       points="30.57,25.9 30.21,25.72 30.57,25.72 "
       id="polygon502" /><polygon
       class="st3"
       points="30.48,25.84 30.75,26.12 30.65,25.78 "
       id="polygon504" /><polygon
       class="st3"
       points="30.57,25.77 30.75,26.12 30.47,25.91 "
       id="polygon506" /><polygon
       class="st3"
       points="30.52,25.77 30.34,26.12 30.63,25.91 "
       id="polygon508" /><polygon
       class="st3"
       points="30.62,25.84 30.34,26.12 30.45,25.78 "
       id="polygon510" /><polygon
       class="st3"
       points="31.44,24.99 31.39,24.68 31.3,24.95 "
       id="polygon512" /><polygon
       class="st3"
       points="31.35,24.99 31.39,24.68 31.48,24.95 "
       id="polygon514" /><polygon
       class="st3"
       points="31.38,25.02 31.66,24.87 31.38,24.87 "
       id="polygon516" /><polygon
       class="st3"
       points="31.35,24.93 31.66,24.87 31.43,25.04 "
       id="polygon518" /><polygon
       class="st3"
       points="31.44,24.93 31.12,24.87 31.35,25.04 "
       id="polygon520" /><polygon
       class="st3"
       points="31.41,25.02 31.12,24.87 31.41,24.87 "
       id="polygon522" /><polygon
       class="st3"
       points="31.34,24.97 31.56,25.19 31.47,24.92 "
       id="polygon524" /><polygon
       class="st3"
       points="31.41,24.91 31.56,25.19 31.33,25.03 "
       id="polygon526" /><polygon
       class="st3"
       points="31.37,24.91 31.23,25.19 31.45,25.03 "
       id="polygon528" /><polygon
       class="st3"
       points="31.45,24.97 31.23,25.19 31.31,24.92 "
       id="polygon530" /><polygon
       class="st3"
       points="29.82,24.75 29.77,24.44 29.68,24.71 "
       id="polygon532" /><polygon
       class="st3"
       points="29.72,24.75 29.77,24.44 29.86,24.71 "
       id="polygon534" /><polygon
       class="st3"
       points="29.76,24.77 30.04,24.64 29.76,24.64 "
       id="polygon536" /><polygon
       class="st3"
       points="29.73,24.68 30.04,24.64 29.81,24.8 "
       id="polygon538" /><polygon
       class="st3"
       points="29.81,24.68 29.5,24.64 29.73,24.8 "
       id="polygon540" /><polygon
       class="st3"
       points="29.78,24.77 29.5,24.64 29.78,24.64 "
       id="polygon542" /><polygon
       class="st3"
       points="29.71,24.73 29.93,24.95 29.85,24.68 "
       id="polygon544" /><polygon
       class="st3"
       points="29.79,24.67 29.93,24.95 29.71,24.78 "
       id="polygon546" /><polygon
       class="st3"
       points="29.75,24.67 29.61,24.95 29.83,24.78 "
       id="polygon548" /><polygon
       class="st3"
       points="29.82,24.73 29.61,24.95 29.69,24.68 "
       id="polygon550" /><polygon
       class="st3"
       points="23.72,24.47 23.65,24 23.52,24.41 "
       id="polygon552" /><polygon
       class="st3"
       points="23.58,24.47 23.65,24 23.78,24.41 "
       id="polygon554" /><polygon
       class="st3"
       points="23.63,24.51 24.05,24.3 23.63,24.3 "
       id="polygon556" /><polygon
       class="st3"
       points="23.58,24.37 24.05,24.3 23.71,24.54 "
       id="polygon558" /><polygon
       class="st3"
       points="23.71,24.37 23.25,24.3 23.59,24.54 "
       id="polygon560" /><polygon
       class="st3"
       points="23.67,24.51 23.25,24.3 23.67,24.3 "
       id="polygon562" /><polygon
       class="st3"
       points="23.56,24.43 23.9,24.77 23.76,24.36 "
       id="polygon564" /><polygon
       class="st3"
       points="23.68,24.35 23.9,24.77 23.55,24.52 "
       id="polygon566" /><polygon
       class="st3"
       points="23.62,24.35 23.4,24.77 23.74,24.52 "
       id="polygon568" /><polygon
       class="st3"
       points="23.73,24.43 23.4,24.77 23.53,24.36 "
       id="polygon570" /><polygon
       class="st3"
       points="27.62,26.92 27.6,26.76 27.56,26.9 "
       id="polygon572" /><polygon
       class="st3"
       points="27.58,26.92 27.6,26.76 27.64,26.9 "
       id="polygon574" /><polygon
       class="st3"
       points="27.59,26.93 27.73,26.86 27.59,26.86 "
       id="polygon576" /><polygon
       class="st3"
       points="27.58,26.89 27.73,26.86 27.62,26.94 "
       id="polygon578" /><polygon
       class="st3"
       points="27.62,26.89 27.47,26.86 27.58,26.94 "
       id="polygon580" /><polygon
       class="st3"
       points="27.61,26.93 27.47,26.86 27.61,26.86 "
       id="polygon582" /><polygon
       class="st3"
       points="27.57,26.91 27.68,27.02 27.64,26.89 "
       id="polygon584" /><polygon
       class="st3"
       points="27.61,26.88 27.68,27.02 27.57,26.94 "
       id="polygon586" /><polygon
       class="st3"
       points="27.59,26.88 27.52,27.02 27.63,26.94 "
       id="polygon588" /><polygon
       class="st3"
       points="27.63,26.91 27.52,27.02 27.56,26.89 "
       id="polygon590" /></g></svg>
